<?xml version="1.0" encoding="UTF-8"?>
<svg id="Layer_1" data-name="Layer 1" xmlns="http://www.w3.org/2000/svg" xmlns:xlink="http://www.w3.org/1999/xlink" viewBox="0 0 756.79 812.14">
  <defs>
    <style>
      .cls-1 {
        fill: url(#Sky-3);
      }

      .cls-1, .cls-2, .cls-3, .cls-4 {
        stroke-width: 0px;
      }

      .cls-2 {
        fill: url(#Sky);
      }

      .cls-3 {
        fill: #fff;
      }

      .cls-5 {
        fill: #3f499e;
        font-family: LucidaHandwriting-Italic, 'Lucida Handwriting';
        font-size: 100px;
        font-style: italic;
      }

      .cls-4 {
        fill: url(#Sky-2);
      }

      .cls-5:hover{
        font-color: red;
      
      }

      #sky:hover {
        display: none;
      }


    </style>

      <script>

      console.log("JS file connected");

      const vectorGraphic = document.querySelector('#badge');

      function logThisId() {
          console.log(this);
          console.log('clicked on this element', this.id);
      }

      vectorGraphic.addEventListener('click', logThisId);

      </script>
    
    <linearGradient id="Sky" x1="0" y1="384.03" x2="756.79" y2="384.03" gradientUnits="userSpaceOnUse">
      <stop offset="0" stop-color="#cce0f4"/>
      <stop offset=".06" stop-color="#c2dcf2"/>
      <stop offset=".17" stop-color="#a9d2ee"/>
      <stop offset=".31" stop-color="#7fc2e7"/>
      <stop offset=".46" stop-color="#46acde"/>
      <stop offset=".57" stop-color="#1d9cd8"/>
      <stop offset=".87" stop-color="#0675bc"/>
      <stop offset=".99" stop-color="#005b97"/>
    </linearGradient>
    <linearGradient id="Sky-2" data-name="Sky" x1="274.91" y1="398.06" x2="676.3" y2="398.06" xlink:href="#Sky"/>
    <linearGradient id="Sky-3" data-name="Sky" x1="413.63" y1="274.35" x2="474.16" y2="274.35" xlink:href="#Sky"/>
  </defs>
  <ellipse class="cls-2" cx="378.39" cy="384.03" rx="378.39" ry="384.03"/>
  <ellipse class="cls-3" cx="378.45" cy="386.34" rx="311.76" ry="316.4"/>
  <g>
    <text class="cls-5" transform="translate(98.89 445.59)"><tspan x="0" y="0">Da Vinci</tspan></text>
    <text class="cls-5" transform="translate(98.39 445.09)"><tspan x="0" y="0">Da Vinci</tspan></text>
    <text class="cls-5" transform="translate(97.89 444.59)"><tspan x="0" y="0">Da Vinci</tspan></text>
    <text class="cls-5" transform="translate(97.39 444.09)"><tspan x="0" y="0">Da Vinci</tspan></text>
    <text class="cls-5" transform="translate(96.89 443.59)"><tspan x="0" y="0">Da Vinci</tspan></text>
    <text class="cls-5" transform="translate(96.39 443.09)"><tspan x="0" y="0">Da Vinci</tspan></text>
    <text class="cls-5" transform="translate(95.89 442.59)"><tspan x="0" y="0">Da Vinci</tspan></text>
    <text class="cls-5" transform="translate(95.39 442.09)"><tspan x="0" y="0">Da Vinci</tspan></text>
    <text class="cls-5" transform="translate(94.89 441.59)"><tspan x="0" y="0">Da Vinci</tspan></text>
    <text class="cls-5" transform="translate(94.39 441.09)"><tspan x="0" y="0">Da Vinci</tspan></text>
    <text class="cls-5" transform="translate(93.89 440.59)"><tspan x="0" y="0">Da Vinci</tspan></text>
  </g>
  <g>
    <path class="cls-4" d="M468.91,257.8c1.19.13,2.07.25,3.06.38l2.86.4c1.89.28,3.77.56,5.63.87,3.73.6,7.43,1.27,11.12,1.96,7.38,1.41,14.7,2.99,21.98,4.78,14.56,3.56,28.97,7.83,43.13,13.04,1.78.63,3.54,1.31,5.3,2l5.28,2.07c3.49,1.49,7,2.88,10.45,4.5,6.95,3.06,13.75,6.59,20.47,10.28,3.31,1.97,6.68,3.8,9.91,5.95,1.63,1.05,3.26,2.07,4.87,3.15l4.77,3.36c.79.57,1.6,1.1,2.37,1.7l2.32,1.8c1.54,1.21,3.1,2.38,4.61,3.64,2.96,2.61,6.01,5.07,8.8,7.92,5.76,5.42,10.95,11.6,15.67,18.13l3.38,5.03c.58.82,1.07,1.74,1.58,2.63l1.51,2.69,1.5,2.69c.46.92.87,1.86,1.3,2.8.83,1.88,1.75,3.72,2.48,5.63,3.01,7.65,4.97,15.65,6.08,23.72l.58,6.08c.13,1.01.09,2.03.12,3.05l.04,3.05c0,1.01.04,2.03.02,3.04l-.19,3.03-.2,3.03-.11,1.51c-.06.5-.14,1-.21,1.5l-.88,6c-.38,1.98-.87,3.94-1.31,5.91-.25.98-.41,1.97-.73,2.93l-.9,2.88c-.63,1.91-1.13,3.86-1.94,5.71l-2.25,5.58-2.66,5.39c-.84,1.82-1.92,3.51-2.94,5.23-1.05,1.7-2,3.46-3.21,5.05l-3.48,4.86c-1.25,1.55-2.56,3.06-3.84,4.58-.65.74-1.27,1.55-1.94,2.24l-2.01,2.07c-1.35,1.37-2.65,2.79-4.05,4.1l-4.23,3.89c-.71.64-1.4,1.31-2.13,1.92l-2.21,1.81-4.43,3.62c-1.49,1.18-3.06,2.25-4.59,3.38-12.29,8.91-25.56,16.12-39.25,22.04l-5.15,2.17-2.57,1.08c-.86.35-1.74.64-2.62.96l-10.48,3.75c-3.53,1.13-7.08,2.15-10.62,3.22-1.77.51-3.53,1.11-5.32,1.55l-5.37,1.32-5.37,1.32-2.68.66-1.34.33-1.35.26-10.82,2.11c-1.8.33-3.6.73-5.41,1.02l-5.44.8-10.87,1.59c-3.63.46-7.27.77-10.9,1.16-3.64.34-7.26.8-10.9,1.05l-10.92.65-5.45.32-2.73.16c-.91.04-1.82.04-2.73.06l-10.92.21-5.46.1-2.73.05h-.69s-.73,0-.73,0l-1.39-.03c-7.35-.23-14.6-.74-21.86-1.44-14.5-1.4-28.89-3.57-43.12-6.54-14.21-3.01-28.28-6.74-41.95-11.6-6.83-2.43-13.59-5.06-20.18-8.05-6.59-2.99-13.05-6.27-19.32-9.86l.08-.15c6.44,3.27,13.02,6.22,19.72,8.87,6.7,2.65,13.53,4.93,20.42,7.01,13.78,4.14,27.86,7.15,42.03,9.43,14.18,2.24,28.48,3.68,42.79,4.36,7.15.34,14.32.49,21.42.36l1.32-.03.63-.02.66-.04,2.68-.18,5.36-.37,10.72-.73c.89-.07,1.79-.11,2.68-.19l2.67-.29,5.34-.58,10.67-1.16c3.55-.42,7.07-1.04,10.6-1.55,3.53-.55,7.06-1.02,10.57-1.65l10.48-2.07,5.24-1.03c1.74-.36,3.45-.83,5.18-1.24l10.34-2.54,1.29-.32,1.27-.38,2.54-.76,5.09-1.52,5.08-1.51c1.69-.5,3.33-1.16,5-1.73,3.32-1.19,6.66-2.33,9.95-3.56l9.73-4.04c.81-.34,1.63-.65,2.42-1.02l2.37-1.14,4.73-2.27c12.53-6.16,24.43-13.43,35.12-22.02,1.33-1.08,2.7-2.11,3.98-3.24l3.8-3.43,1.9-1.71c.63-.58,1.2-1.2,1.8-1.8l3.57-3.62c1.18-1.21,2.24-2.52,3.37-3.78l1.67-1.9c.57-.63,1-1.29,1.51-1.93l2.94-3.87,2.62-4.08c.93-1.32,1.61-2.8,2.39-4.21.75-1.43,1.57-2.81,2.16-4.32l1.93-4.42,1.57-4.55c.59-1.49.88-3.08,1.31-4.62l.61-2.32c.23-.77.3-1.57.46-2.35.26-1.58.59-3.14.81-4.71l.45-4.75c.04-.4.09-.79.11-1.19v-1.19s.05-2.38.05-2.38l.05-2.37c-.02-.79-.1-1.58-.14-2.37l-.15-2.37c-.06-.79-.06-1.58-.21-2.36l-.68-4.68c-1.19-6.18-2.97-12.21-5.54-17.89-.63-1.43-1.42-2.78-2.11-4.17-.36-.69-.69-1.39-1.07-2.07l-1.25-1.97-1.24-1.97c-.42-.66-.79-1.33-1.3-1.95l-2.86-3.82c-4-4.96-8.35-9.71-13.34-13.94-2.36-2.22-5.06-4.15-7.61-6.21-1.32-.99-2.7-1.91-4.04-2.87l-2.03-1.43c-.67-.48-1.4-.9-2.1-1.35l-4.22-2.68c-1.43-.86-2.91-1.67-4.36-2.51-2.87-1.72-5.94-3.18-8.91-4.77-6.1-2.95-12.27-5.8-18.67-8.25-3.15-1.3-6.42-2.41-9.63-3.6l-4.89-1.65c-1.63-.55-3.26-1.09-4.92-1.59-13.16-4.12-26.67-7.42-40.32-10.05-6.82-1.32-13.69-2.46-20.55-3.42-3.43-.47-6.87-.92-10.29-1.29l-5.11-.53-2.52-.22-2.33-.17,2.99-34.02Z"/>
    <polygon class="cls-1" points="413.63 268.06 474.16 220.12 461.57 328.58 413.63 268.06"/>
  </g>
</svg>