<?xml version="1.0" encoding="UTF-8"?>
<svg id="Layer_1" data-name="Layer 1" xmlns="http://www.w3.org/2000/svg" viewBox="0 0 515 495">
  <defs>
    <style>
      .cls-1 {
        fill: #29aae2;
        stroke-width: 0px;
      }

      .cls-2 {
        letter-spacing: -.05em;
      }

      .cls-3 {
        fill: #fff;
        font-family: PerpetuaTitlingMT-Bold, 'Perpetua Titling MT';
        font-size: 139px;
        font-weight: 700;
        stroke: #000;
        stroke-miterlimit: 10;
        stroke-width: 2px;
      }
    </style>
  </defs>
  <circle class="cls-1" cx="247.5" cy="247.5" r="247.5"/>
  <g>
    <text class="cls-3" transform="translate(30.23 315.49)"><tspan x="0" y="0">M</tspan><tspan class="cls-2" x="136.08" y="0">A</tspan><tspan x="239.25" y="0">CK</tspan></text>
    <text class="cls-3" transform="translate(29.23 314.49)"><tspan x="0" y="0">M</tspan><tspan class="cls-2" x="136.08" y="0">A</tspan><tspan x="239.25" y="0">CK</tspan></text>
    <text class="cls-3" transform="translate(28.23 313.49)"><tspan x="0" y="0">M</tspan><tspan class="cls-2" x="136.08" y="0">A</tspan><tspan x="239.25" y="0">CK</tspan></text>
    <text class="cls-3" transform="translate(27.23 312.49)"><tspan x="0" y="0">M</tspan><tspan class="cls-2" x="136.08" y="0">A</tspan><tspan x="239.25" y="0">CK</tspan></text>
    <text class="cls-3" transform="translate(26.23 311.49)"><tspan x="0" y="0">M</tspan><tspan class="cls-2" x="136.08" y="0">A</tspan><tspan x="239.25" y="0">CK</tspan></text>
    <text class="cls-3" transform="translate(25.23 310.49)"><tspan x="0" y="0">M</tspan><tspan class="cls-2" x="136.08" y="0">A</tspan><tspan x="239.25" y="0">CK</tspan></text>
    <text class="cls-3" transform="translate(24.23 309.49)"><tspan x="0" y="0">M</tspan><tspan class="cls-2" x="136.08" y="0">A</tspan><tspan x="239.25" y="0">CK</tspan></text>
    <text class="cls-3" transform="translate(23.23 308.49)"><tspan x="0" y="0">M</tspan><tspan class="cls-2" x="136.08" y="0">A</tspan><tspan x="239.25" y="0">CK</tspan></text>
    <text class="cls-3" transform="translate(22.23 307.49)"><tspan x="0" y="0">M</tspan><tspan class="cls-2" x="136.08" y="0">A</tspan><tspan x="239.25" y="0">CK</tspan></text>
    <text class="cls-3" transform="translate(21.23 306.49)"><tspan x="0" y="0">M</tspan><tspan class="cls-2" x="136.08" y="0">A</tspan><tspan x="239.25" y="0">CK</tspan></text>
    <text class="cls-3" transform="translate(20.23 305.49)"><tspan x="0" y="0">M</tspan><tspan class="cls-2" x="136.08" y="0">A</tspan><tspan x="239.25" y="0">CK</tspan></text>
    <text class="cls-3" transform="translate(19.23 304.49)"><tspan x="0" y="0">M</tspan><tspan class="cls-2" x="136.08" y="0">A</tspan><tspan x="239.25" y="0">CK</tspan></text>
    <text class="cls-3" transform="translate(18.23 303.49)"><tspan x="0" y="0">M</tspan><tspan class="cls-2" x="136.08" y="0">A</tspan><tspan x="239.25" y="0">CK</tspan></text>
    <text class="cls-3" transform="translate(17.23 302.49)"><tspan x="0" y="0">M</tspan><tspan class="cls-2" x="136.08" y="0">A</tspan><tspan x="239.25" y="0">CK</tspan></text>
    <text class="cls-3" transform="translate(16.23 301.49)"><tspan x="0" y="0">M</tspan><tspan class="cls-2" x="136.08" y="0">A</tspan><tspan x="239.25" y="0">CK</tspan></text>
    <text class="cls-3" transform="translate(15.23 300.49)"><tspan x="0" y="0">M</tspan><tspan class="cls-2" x="136.08" y="0">A</tspan><tspan x="239.25" y="0">CK</tspan></text>
    <text class="cls-3" transform="translate(14.23 299.49)"><tspan x="0" y="0">M</tspan><tspan class="cls-2" x="136.08" y="0">A</tspan><tspan x="239.25" y="0">CK</tspan></text>
    <text class="cls-3" transform="translate(13.23 298.49)"><tspan x="0" y="0">M</tspan><tspan class="cls-2" x="136.08" y="0">A</tspan><tspan x="239.25" y="0">CK</tspan></text>
    <text class="cls-3" transform="translate(12.23 297.49)"><tspan x="0" y="0">M</tspan><tspan class="cls-2" x="136.08" y="0">A</tspan><tspan x="239.25" y="0">CK</tspan></text>
    <text class="cls-3" transform="translate(11.23 296.49)"><tspan x="0" y="0">M</tspan><tspan class="cls-2" x="136.08" y="0">A</tspan><tspan x="239.25" y="0">CK</tspan></text>
    <text class="cls-3" transform="translate(10.23 295.49)"><tspan x="0" y="0">M</tspan><tspan class="cls-2" x="136.08" y="0">A</tspan><tspan x="239.25" y="0">CK</tspan></text>
  </g>
</svg>