<?xml version="1.0" encoding="UTF-8"?>
<svg id="Layer_1" data-name="Layer 1" xmlns="http://www.w3.org/2000/svg" viewBox="0 0 587 587">
  <defs>
    <style>
      .cls-1 {
        fill: #f0eccf;
      }

      .cls-1, .cls-2 {
        stroke: #000;
        stroke-miterlimit: 10;
      }

      .cls-3 {
        fill: #1461ae;
        stroke-width: 0px;
      }

      .cls-2 {
        fill: #41a2d8;
        font-family: AgencyFB-Bold, 'Agency FB';
        font-size: 103px;
        font-weight: 700;
        stroke-width: 3px;
      }
    </style>
  </defs>
  <circle class="cls-1" cx="293.5" cy="293.5" r="293"/>
  <g>
    <text class="cls-2" transform="translate(124.3 292.93)"><tspan x="0" y="0">Star Wars</tspan></text>
    <text class="cls-2" transform="translate(124.2 292.83)"><tspan x="0" y="0">Star Wars</tspan></text>
    <text class="cls-2" transform="translate(124.1 292.73)"><tspan x="0" y="0">Star Wars</tspan></text>
    <text class="cls-2" transform="translate(124 292.63)"><tspan x="0" y="0">Star Wars</tspan></text>
    <text class="cls-2" transform="translate(123.9 292.53)"><tspan x="0" y="0">Star Wars</tspan></text>
    <text class="cls-2" transform="translate(123.8 292.43)"><tspan x="0" y="0">Star Wars</tspan></text>
    <text class="cls-2" transform="translate(123.7 292.33)"><tspan x="0" y="0">Star Wars</tspan></text>
    <text class="cls-2" transform="translate(123.6 292.23)"><tspan x="0" y="0">Star Wars</tspan></text>
    <text class="cls-2" transform="translate(123.5 292.13)"><tspan x="0" y="0">Star Wars</tspan></text>
    <text class="cls-2" transform="translate(123.4 292.03)"><tspan x="0" y="0">Star Wars</tspan></text>
    <text class="cls-2" transform="translate(123.3 291.93)"><tspan x="0" y="0">Star Wars</tspan></text>
    <text class="cls-2" transform="translate(123.2 291.83)"><tspan x="0" y="0">Star Wars</tspan></text>
    <text class="cls-2" transform="translate(123.1 291.73)"><tspan x="0" y="0">Star Wars</tspan></text>
    <text class="cls-2" transform="translate(123 291.63)"><tspan x="0" y="0">Star Wars</tspan></text>
    <text class="cls-2" transform="translate(122.9 291.53)"><tspan x="0" y="0">Star Wars</tspan></text>
    <text class="cls-2" transform="translate(122.8 291.43)"><tspan x="0" y="0">Star Wars</tspan></text>
    <text class="cls-2" transform="translate(122.7 291.33)"><tspan x="0" y="0">Star Wars</tspan></text>
    <text class="cls-2" transform="translate(122.6 291.23)"><tspan x="0" y="0">Star Wars</tspan></text>
    <text class="cls-2" transform="translate(122.5 291.13)"><tspan x="0" y="0">Star Wars</tspan></text>
    <text class="cls-2" transform="translate(122.4 291.03)"><tspan x="0" y="0">Star Wars</tspan></text>
    <text class="cls-2" transform="translate(122.3 290.93)"><tspan x="0" y="0">Star Wars</tspan></text>
    <text class="cls-2" transform="translate(122.2 290.83)"><tspan x="0" y="0">Star Wars</tspan></text>
    <text class="cls-2" transform="translate(122.1 290.73)"><tspan x="0" y="0">Star Wars</tspan></text>
    <text class="cls-2" transform="translate(122 290.63)"><tspan x="0" y="0">Star Wars</tspan></text>
    <text class="cls-2" transform="translate(121.9 290.53)"><tspan x="0" y="0">Star Wars</tspan></text>
    <text class="cls-2" transform="translate(121.8 290.43)"><tspan x="0" y="0">Star Wars</tspan></text>
    <text class="cls-2" transform="translate(121.7 290.33)"><tspan x="0" y="0">Star Wars</tspan></text>
    <text class="cls-2" transform="translate(121.6 290.23)"><tspan x="0" y="0">Star Wars</tspan></text>
    <text class="cls-2" transform="translate(121.5 290.13)"><tspan x="0" y="0">Star Wars</tspan></text>
    <text class="cls-2" transform="translate(121.4 290.03)"><tspan x="0" y="0">Star Wars</tspan></text>
    <text class="cls-2" transform="translate(121.3 289.93)"><tspan x="0" y="0">Star Wars</tspan></text>
    <text class="cls-2" transform="translate(121.2 289.83)"><tspan x="0" y="0">Star Wars</tspan></text>
    <text class="cls-2" transform="translate(121.1 289.73)"><tspan x="0" y="0">Star Wars</tspan></text>
    <text class="cls-2" transform="translate(121 289.63)"><tspan x="0" y="0">Star Wars</tspan></text>
    <text class="cls-2" transform="translate(120.9 289.53)"><tspan x="0" y="0">Star Wars</tspan></text>
    <text class="cls-2" transform="translate(120.8 289.43)"><tspan x="0" y="0">Star Wars</tspan></text>
    <text class="cls-2" transform="translate(120.7 289.33)"><tspan x="0" y="0">Star Wars</tspan></text>
    <text class="cls-2" transform="translate(120.6 289.23)"><tspan x="0" y="0">Star Wars</tspan></text>
    <text class="cls-2" transform="translate(120.5 289.13)"><tspan x="0" y="0">Star Wars</tspan></text>
    <text class="cls-2" transform="translate(120.4 289.03)"><tspan x="0" y="0">Star Wars</tspan></text>
    <text class="cls-2" transform="translate(120.3 288.93)"><tspan x="0" y="0">Star Wars</tspan></text>
  </g>
  <path class="cls-3" d="M365,143c46.67-14.96,103.14-11.82,140.53,23.13,5.83,5.26,11.12,11.36,15.88,17.53,7.32,9.48,13.67,19.34,18.67,30.43,6.92,15.23,10.34,32.78,9.77,49.69-.79,20.27-8.65,40.23-19.94,56.94-15.18,21.97-39.77,34.96-62.21,46.91-4.42,2.43-9.27,4.78-13.79,6.96-36.85,17.2-75.24,30.03-114.23,41.16-68.81,19.15-139.86,31.86-211.63,34.43-8.02.35-16.79.32-24.67.41,0,0,12.26-136.14,12.26-136.14,95.75,18.41,197.09,18.22,293.76,3.55,13.86-2.26,27.29-4.92,40.66-8.84,19.07-5.52,32.87-8.71,47.43-18.02,6.08-4.39,11.7-9.77,16.03-15.74,7.23-9.95,11.61-21.95,10.94-34.55-.76-16.11-7.77-33.43-16.49-47.95-29.01-50.59-89.35-62.49-142.96-49.89h0Z"/>
  <polygon class="cls-3" points="115.63 314.43 23.5 367.91 105.46 450.5 115.63 314.43"/>
  <polygon class="cls-3" points="103.37 450.57 40.56 384.49 104.52 323.5 167.46 389.51 103.37 450.57"/>
</svg>