<?xml version="1.0" encoding="UTF-8"?>
<svg id="Layer_1" data-name="Layer 1" xmlns="http://www.w3.org/2000/svg" viewBox="0 0 427 427">
  <defs>
    <style>
      .cls-1 {
        font-size: 100px;
      }

      .cls-1, .cls-2, .cls-3 {
        fill: #fff;
        stroke: #000;
        stroke-miterlimit: 10;
      }

      .cls-1, .cls-3 {
        font-family: OCRAExtended, 'OCR A Extended';
        stroke-width: 3px;
      }

      .cls-2 {
        stroke-width: 16px;
      }

      .cls-3 {
        font-size: 170px;
      }
    </style>
  </defs>
  <circle class="cls-2" cx="213.5" cy="213.5" r="205.5"/>
  <g>
    <text class="cls-1" transform="translate(77.89 280.12)"><tspan x="0" y="0">TOF</tspan></text>
    <text class="cls-1" transform="translate(76.89 279.12)"><tspan x="0" y="0">TOF</tspan></text>
    <text class="cls-1" transform="translate(75.89 278.12)"><tspan x="0" y="0">TOF</tspan></text>
    <text class="cls-1" transform="translate(74.89 277.12)"><tspan x="0" y="0">TOF</tspan></text>
    <text class="cls-1" transform="translate(73.89 276.12)"><tspan x="0" y="0">TOF</tspan></text>
    <text class="cls-1" transform="translate(72.89 275.12)"><tspan x="0" y="0">TOF</tspan></text>
    <text class="cls-1" transform="translate(71.89 274.12)"><tspan x="0" y="0">TOF</tspan></text>
    <text class="cls-1" transform="translate(70.89 273.12)"><tspan x="0" y="0">TOF</tspan></text>
    <text class="cls-1" transform="translate(69.89 272.12)"><tspan x="0" y="0">TOF</tspan></text>
    <text class="cls-1" transform="translate(68.89 271.12)"><tspan x="0" y="0">TOF</tspan></text>
    <text class="cls-1" transform="translate(67.89 270.12)"><tspan x="0" y="0">TOF</tspan></text>
    <text class="cls-1" transform="translate(66.89 269.12)"><tspan x="0" y="0">TOF</tspan></text>
    <text class="cls-1" transform="translate(65.89 268.12)"><tspan x="0" y="0">TOF</tspan></text>
    <text class="cls-1" transform="translate(64.89 267.12)"><tspan x="0" y="0">TOF</tspan></text>
    <text class="cls-1" transform="translate(63.89 266.12)"><tspan x="0" y="0">TOF</tspan></text>
    <text class="cls-1" transform="translate(62.89 265.12)"><tspan x="0" y="0">TOF</tspan></text>
    <text class="cls-1" transform="translate(61.89 264.12)"><tspan x="0" y="0">TOF</tspan></text>
    <text class="cls-1" transform="translate(60.89 263.12)"><tspan x="0" y="0">TOF</tspan></text>
    <text class="cls-1" transform="translate(59.89 262.12)"><tspan x="0" y="0">TOF</tspan></text>
    <text class="cls-1" transform="translate(58.89 261.12)"><tspan x="0" y="0">TOF</tspan></text>
    <text class="cls-1" transform="translate(57.89 260.12)"><tspan x="0" y="0">TOF</tspan></text>
  </g>
  <g>
    <text class="cls-3" transform="translate(244 237.33)"><tspan x="0" y="0">U</tspan></text>
    <text class="cls-3" transform="translate(245 238.33)"><tspan x="0" y="0">U</tspan></text>
    <text class="cls-3" transform="translate(246 239.33)"><tspan x="0" y="0">U</tspan></text>
    <text class="cls-3" transform="translate(247 240.33)"><tspan x="0" y="0">U</tspan></text>
    <text class="cls-3" transform="translate(248 241.33)"><tspan x="0" y="0">U</tspan></text>
    <text class="cls-3" transform="translate(249 242.33)"><tspan x="0" y="0">U</tspan></text>
    <text class="cls-3" transform="translate(250 243.33)"><tspan x="0" y="0">U</tspan></text>
    <text class="cls-3" transform="translate(251 244.33)"><tspan x="0" y="0">U</tspan></text>
    <text class="cls-3" transform="translate(252 245.33)"><tspan x="0" y="0">U</tspan></text>
    <text class="cls-3" transform="translate(253 246.33)"><tspan x="0" y="0">U</tspan></text>
    <text class="cls-3" transform="translate(254 247.33)"><tspan x="0" y="0">U</tspan></text>
    <text class="cls-3" transform="translate(255 248.33)"><tspan x="0" y="0">U</tspan></text>
    <text class="cls-3" transform="translate(256 249.33)"><tspan x="0" y="0">U</tspan></text>
    <text class="cls-3" transform="translate(257 250.33)"><tspan x="0" y="0">U</tspan></text>
    <text class="cls-3" transform="translate(258 251.33)"><tspan x="0" y="0">U</tspan></text>
    <text class="cls-3" transform="translate(259 252.33)"><tspan x="0" y="0">U</tspan></text>
    <text class="cls-3" transform="translate(260 253.33)"><tspan x="0" y="0">U</tspan></text>
    <text class="cls-3" transform="translate(261 254.33)"><tspan x="0" y="0">U</tspan></text>
    <text class="cls-3" transform="translate(262 255.33)"><tspan x="0" y="0">U</tspan></text>
    <text class="cls-3" transform="translate(263 256.33)"><tspan x="0" y="0">U</tspan></text>
    <text class="cls-3" transform="translate(264 257.33)"><tspan x="0" y="0">U</tspan></text>
  </g>
</svg>